<?xml version="1.0" encoding="UTF-8" standalone="no"?>
<svg
   xmlns:dc="http://purl.org/dc/elements/1.1/"
   xmlns:cc="http://creativecommons.org/ns#"
   xmlns:rdf="http://www.w3.org/1999/02/22-rdf-syntax-ns#"
   xmlns:svg="http://www.w3.org/2000/svg"
   xmlns="http://www.w3.org/2000/svg"
   xmlns:sodipodi="http://sodipodi.sourceforge.net/DTD/sodipodi-0.dtd"
   xmlns:inkscape="http://www.inkscape.org/namespaces/inkscape"
   width="1000"
   height="590.76819"
   viewBox="0 0 1000 590.7682"
   version="1.1"
   id="svg15564"
   sodipodi:docname="A.svg"
   inkscape:version="0.92.4 (5da689c313, 2019-01-14)">
  <metadata
     id="metadata15570">
    <rdf:RDF>
      <cc:Work
         rdf:about="">
        <dc:format>image/svg+xml</dc:format>
        <dc:type
           rdf:resource="http://purl.org/dc/dcmitype/StillImage" />
        <dc:title></dc:title>
      </cc:Work>
    </rdf:RDF>
  </metadata>
  <defs
     id="defs15568">
    <clipPath
       clipPathUnits="userSpaceOnUse"
       id="clipPath15634">
      <path
         d="M 428.243,691.166 H 578.58 v 73.771 H 428.243 Z"
         id="path15632"
         inkscape:connector-curvature="0" />
    </clipPath>
    <clipPath
       clipPathUnits="userSpaceOnUse"
       id="clipPath17003">
      <path
         d="M 0,0 H 595.276 V 841.89 H 0 Z"
         id="path17001"
         inkscape:connector-curvature="0" />
    </clipPath>
    <clipPath
       clipPathUnits="userSpaceOnUse"
       id="clipPath16963">
      <path
         d="M 0,0 H 595.276 V 841.89 H 0 Z"
         id="path16961"
         inkscape:connector-curvature="0" />
    </clipPath>
    <clipPath
       clipPathUnits="userSpaceOnUse"
       id="clipPath16935">
      <path
         d="M 0,0 H 595.276 V 841.89 H 0 Z"
         id="path16933"
         inkscape:connector-curvature="0" />
    </clipPath>
    <clipPath
       clipPathUnits="userSpaceOnUse"
       id="clipPath16915">
      <path
         d="M 0,0 H 595.276 V 841.89 H 0 Z"
         id="path16913"
         inkscape:connector-curvature="0" />
    </clipPath>
    <clipPath
       clipPathUnits="userSpaceOnUse"
       id="clipPath271">
      <path
         d="M 0,0 H 1080 V 1848.189 H 0 Z"
         id="path269"
         inkscape:connector-curvature="0" />
    </clipPath>
    <clipPath
       clipPathUnits="userSpaceOnUse"
       id="clipPath235">
      <path
         d="M 0,0 H 1080 V 1848.189 H 0 Z"
         id="path233"
         inkscape:connector-curvature="0" />
    </clipPath>
  </defs>
  <sodipodi:namedview
     pagecolor="#ffffff"
     bordercolor="#666666"
     borderopacity="1"
     objecttolerance="10"
     gridtolerance="10"
     guidetolerance="10"
     inkscape:pageopacity="0"
     inkscape:pageshadow="2"
     inkscape:window-width="1920"
     inkscape:window-height="1017"
     id="namedview15566"
     showgrid="false"
     fit-margin-top="0"
     fit-margin-left="0"
     fit-margin-right="0"
     fit-margin-bottom="0"
     inkscape:zoom="0.25440472"
     inkscape:cx="1039.3127"
     inkscape:cy="-297.51771"
     inkscape:window-x="1912"
     inkscape:window-y="-8"
     inkscape:window-maximized="1"
     inkscape:current-layer="svg15564" />
  <path
     inkscape:connector-curvature="0"
     id="path17842"
     style="fill:#000000;fill-opacity:1;fill-rule:nonzero;stroke:none;stroke-width:12.26423454"
     d="m 711.75371,7.16719 v 576.5049 C 870.95571,583.67209 1000,454.61554 1000,295.42577 1000,136.22374 870.95571,7.16719 711.75371,7.16719" />
  <path
     inkscape:connector-curvature="0"
     id="path17846"
     style="fill:#000000;fill-opacity:1;fill-rule:nonzero;stroke:none;stroke-width:12.26423454"
     d="m 631.80561,400.86877 c 0,-63.66366 -31.3719,-119.98102 -79.4477,-154.43125 23.3265,-26.15962 37.6144,-60.5608 37.6144,-98.37144 C 589.97231,66.28817 523.68411,0 441.90611,0 360.14053,0 293.84007,66.28817 293.84007,148.06608 c 0,37.81064 14.30013,72.21182 37.62671,98.37144 -48.08807,34.45023 -79.44778,90.76759 -79.44778,154.43125 0,104.87147 85.01571,189.8994 189.88711,189.8994 27.9012,0 54.3674,-6.07079 78.2337,-16.87558 12.2887,10.49818 28.2076,16.87558 45.6352,16.87558 38.8408,0 70.323,-31.48228 70.323,-70.32312 0,-18.31049 -7.0518,-34.92854 -18.5189,-47.43806 9.1491,-22.24732 14.2265,-46.59182 14.2265,-72.13822" />
  <path
     inkscape:connector-curvature="0"
     id="path17850"
     style="fill:#000000;fill-opacity:1;fill-rule:nonzero;stroke:none;stroke-width:12.26423454"
     d="m 0,7.16597 v 0 384.23848 192.11924 c 106.09793,0 192.11928,-86.00908 192.11928,-192.11924 0,-35.00213 -9.4067,-67.79669 -25.76713,-96.06575 16.36043,-28.2568 25.76713,-61.05137 25.76713,-96.05349 C 192.11928,93.17504 106.09793,7.16597 0,7.16597" />
</svg>
